<!-- Generator: Adobe Illustrator 22.1.0, SVG Export Plug-In  -->
<svg version="1.1"
     xmlns="http://www.w3.org/2000/svg" xmlns:xlink="http://www.w3.org/1999/xlink" xmlns:a="http://ns.adobe.com/AdobeSVGViewerExtensions/3.0/"
     x="0px" y="0px" width="457.7px" height="314.8px" viewBox="0 0 457.7 314.8"
     style="overflow:scroll;enable-background:new 0 0 457.7 314.8;" xml:space="preserve">
<style type="text/css">
    .st0{opacity:0.3;fill:#163C69;}
    .st1{opacity:0.4;fill:none;stroke:#00FCFF;stroke-miterlimit:10;}
    .st2{opacity:0.6;fill:none;stroke:#00FCFF;stroke-width:1.5;stroke-miterlimit:10;stroke-dasharray:135; stroke-dashoffset:270; animation: dash 3s linear infinite}
    @keyframes dash {
      to { stroke-dashoffset: 0; }
    }
    .st3{fill:url(#tab_20_);}
    .st4{fill:url(#tab_21_);}
    .st5{fill:url(#tab_22_);}
    .st6{fill:url(#tab_23_);}
    .st7{fill:url(#tab_24_);}
    .st8{fill:url(#tab_25_);}
    .st9{fill:url(#tab_26_);}
    .st10{fill:url(#tab_27_);}
    .st11{fill:url(#tab_28_);}
    .st12{fill:url(#tab_29_);}
    .st13{fill:url(#tab_30_);}
    .st14{fill:url(#tab_31_);}
    .st15{fill:url(#tab_32_);}
    .st16{fill:url(#tab_33_);}
    .st17{fill:url(#tab_34_);}
    .st18{fill:url(#tab_35_);}
    .st19{fill:url(#tab_36_);}
    .st20{fill:url(#tab_37_);}
    .st21{fill:url(#tab_38_);}
    .st22{fill:url(#tab_39_);}
</style>
<defs>
</defs>
<polygon id="bg_1_" class="st0" points="22.2,7.5 18.2,7.5 3.6,22.1 3.6,296.4 18.1,310.9 439.7,310.9 454.1,296.5 454.1,22.5 
    439.4,7.8 "/>
<polyline id="border_2_" class="st1" points="229.7,7.8 439.4,7.8 454.1,22.5 454.1,296.5 439.7,310.9 18.1,310.9 3.6,296.4 
    3.6,22.1 18.2,7.5 22.2,7.5 "/>
<polyline id="border2_1_" class="st2" points="24.7,4.3 15.7,4.3 0.8,19.3 0.8,299.2 15.5,314 442.2,314 456.9,299.3 456.9,19.6 
    441.9,4.6 290,4.6 "/>
<linearGradient id="tab_20_" gradientUnits="userSpaceOnUse" x1="233.25" y1="0" x2="233.25" y2="8">
    <stop  offset="0" style="stop-color:#FFFFFF;stop-opacity:0"/>
    <stop  offset="1" style="stop-color:#00FCFF"/>
</linearGradient>
<polygon id="tab_19_" class="st3" points="230.8,8 228.8,8 235.8,0 237.8,0 "/>
<linearGradient id="tab_21_" gradientUnits="userSpaceOnUse" x1="239.3611" y1="0" x2="239.3611" y2="8">
    <stop  offset="0" style="stop-color:#FFFFFF;stop-opacity:0"/>
    <stop  offset="1" style="stop-color:#00FCFF"/>
</linearGradient>
<polygon id="tab_18_" class="st4" points="236.9,8 234.9,8 241.9,0 243.9,0 "/>
<linearGradient id="tab_22_" gradientUnits="userSpaceOnUse" x1="245.4722" y1="0" x2="245.4722" y2="8">
    <stop  offset="0" style="stop-color:#FFFFFF;stop-opacity:0"/>
    <stop  offset="1" style="stop-color:#00FCFF"/>
</linearGradient>
<polygon id="tab_17_" class="st5" points="243,8 241,8 248,0 250,0 "/>
<linearGradient id="tab_23_" gradientUnits="userSpaceOnUse" x1="251.5833" y1="0" x2="251.5833" y2="8">
    <stop  offset="0" style="stop-color:#FFFFFF;stop-opacity:0"/>
    <stop  offset="1" style="stop-color:#00FCFF"/>
</linearGradient>
<polygon id="tab_16_" class="st6" points="249.1,8 247.1,8 254.1,0 256.1,0 "/>
<linearGradient id="tab_24_" gradientUnits="userSpaceOnUse" x1="257.6945" y1="0" x2="257.6945" y2="8">
    <stop  offset="0" style="stop-color:#FFFFFF;stop-opacity:0"/>
    <stop  offset="1" style="stop-color:#00FCFF"/>
</linearGradient>
<polygon id="tab_15_" class="st7" points="255.2,8 253.2,8 260.2,0 262.2,0 "/>
<linearGradient id="tab_25_" gradientUnits="userSpaceOnUse" x1="263.8055" y1="0" x2="263.8055" y2="8">
    <stop  offset="0" style="stop-color:#FFFFFF;stop-opacity:0"/>
    <stop  offset="1" style="stop-color:#00FCFF"/>
</linearGradient>
<polygon id="tab_14_" class="st8" points="261.3,8 259.3,8 266.3,0 268.3,0 "/>
<linearGradient id="tab_26_" gradientUnits="userSpaceOnUse" x1="269.9167" y1="0" x2="269.9167" y2="8">
    <stop  offset="0" style="stop-color:#FFFFFF;stop-opacity:0"/>
    <stop  offset="1" style="stop-color:#00FCFF"/>
</linearGradient>
<polygon id="tab_13_" class="st9" points="267.4,8 265.4,8 272.4,0 274.4,0 "/>
<linearGradient id="tab_27_" gradientUnits="userSpaceOnUse" x1="276.0278" y1="0" x2="276.0278" y2="8">
    <stop  offset="0" style="stop-color:#FFFFFF;stop-opacity:0"/>
    <stop  offset="1" style="stop-color:#00FCFF"/>
</linearGradient>
<polygon id="tab_12_" class="st10" points="273.5,8 271.5,8 278.5,0 280.5,0 "/>
<linearGradient id="tab_28_" gradientUnits="userSpaceOnUse" x1="282.1389" y1="0" x2="282.1389" y2="8">
    <stop  offset="0" style="stop-color:#FFFFFF;stop-opacity:0"/>
    <stop  offset="1" style="stop-color:#00FCFF"/>
</linearGradient>
<polygon id="tab_11_" class="st11" points="279.6,8 277.6,8 284.6,0 286.6,0 "/>
<linearGradient id="tab_29_" gradientUnits="userSpaceOnUse" x1="288.25" y1="0" x2="288.25" y2="8">
    <stop  offset="0" style="stop-color:#FFFFFF;stop-opacity:0"/>
    <stop  offset="1" style="stop-color:#00FCFF"/>
</linearGradient>
<polygon id="tab_10_" class="st12" points="285.8,8 283.8,8 290.8,0 292.8,0 "/>
</svg>
